<svg xmlns="http://www.w3.org/2000/svg" x="0px" y="0px" width="100" height="100" viewBox="0 0 50 50"><path fill="#1E293B" stroke-width="0.5" stroke="rgba(255, 255, 255, 1) " stroke-linecap="round" d="M23.987,17l-5.094-8.727C18.795,8.104,18.614,8,18.418,8H3.931	C3.507,8,3.243,8.46,3.457,8.827l20.056,34.36c0.212,0.363,0.737,0.363,0.949,0l20.056-34.36C44.731,8.46,44.467,8,44.043,8H29.556	c-0.195,0-0.376,0.104-0.475,0.273L23.987,17z M37.26,8.252l-12.841,22l-0.432,0.74l-0.432-0.74l-12.841-22L10.567,8H9.988l0.294,0.504l12.841,22	l0.864,1.48l0.864-1.48l12.841-22L37.986,8h-0.579L37.26,8.252z M36.828,9h0.005H36.828z" class="transition-colors duration-200" opacity="1" pathLength="1" stroke-dashoffset="0px" stroke-dasharray="1px 1px"></path></svg>